# xmcd CD database file
#
# Track frame offsets:
#	150
#	18970
#	36762
#	55542
#
# Disc length: 974 seconds
#
# Revision: 1
# Processed by: cddbd v1.5.1PL0 Copyright (c) Steve Scherf et al.
# Submitted via: CDex 1.51
#
DISCID=2303cc04
DTITLE=エンジェル隊 - エンジェル★ろっけんろー
DYEAR=2004
DGENRE=Anime
TTITLE0=エンジェル★ろっけんろー
TTITLE1=Jelly Beans
TTITLE2=エンジェル★ろっけんろー *karaoke
TTITLE3=Jelly Beans *karaoke
EXTD=YEAR: 2004
EXTT0=
EXTT1=
EXTT2=
EXTT3=
PLAYORDER=
